M48
; DRILL file {KiCad (6.0.1)} date Wed Feb 22 17:25:04 2023
; FORMAT={-:-/ absolute / metric / decimal}
; #@! TF.CreationDate,2023-02-22T17:25:04-05:00
; #@! TF.GenerationSoftware,Kicad,Pcbnew,(6.0.1)
; #@! TF.FileFunction,Plated,1,2,PTH
FMAT,2
METRIC
; #@! TA.AperFunction,Plated,PTH,ViaDrill
T1C0.400
; #@! TA.AperFunction,Plated,PTH,ViaDrill
T2C0.500
; #@! TA.AperFunction,Plated,PTH,ComponentDrill
T3C0.700
; #@! TA.AperFunction,Plated,PTH,ComponentDrill
T4C0.800
; #@! TA.AperFunction,Plated,PTH,ComponentDrill
T5C1.000
; #@! TA.AperFunction,Plated,PTH,ComponentDrill
T6C1.300
; #@! TA.AperFunction,Plated,PTH,ComponentDrill
T7C2.200
; #@! TA.AperFunction,Plated,PTH,ComponentDrill
T8C3.700
%
G90
G05
T1
X113.4Y-96.3
X120.6Y-106.05
X120.85Y-102.0
X124.986Y-93.336
X126.249Y-90.548
X126.75Y-105.0
T2
X132.15Y-99.15
X135.75Y-98.75
X153.15Y-95.75
X153.75Y-110.55
T3
X111.75Y-99.21
X111.75Y-104.29
X112.95Y-89.56
X112.95Y-94.64
X114.1Y-107.76
X114.1Y-112.84
X114.22Y-118.4
X115.4Y-92.75
X116.5Y-84.26
X116.5Y-89.34
X119.3Y-118.4
X120.48Y-92.75
X123.0Y-107.81
X123.0Y-112.89
X123.1Y-93.31
X123.1Y-98.39
X127.57Y-94.5
X131.81Y-80.55
X131.81Y-96.95
X132.65Y-94.5
X134.81Y-77.95
X135.58Y-83.26
X136.2Y-128.0
X136.89Y-80.55
X136.89Y-96.95
X139.89Y-77.95
X140.7Y-127.9
X182.1Y-125.41
X182.1Y-130.49
X182.15Y-79.01
X182.15Y-84.09
X184.55Y-109.75
X185.07Y-99.68
X189.63Y-109.75
X190.15Y-99.68
T4
X105.15Y-107.6
X105.2Y-102.6
X107.65Y-107.6
X107.7Y-102.6
X111.3Y-106.7
X111.3Y-109.2
X113.05Y-84.65
X113.05Y-87.15
X117.185Y-112.365
X119.725Y-109.825
X119.725Y-114.905
X119.8Y-85.5
X119.8Y-88.0
X122.85Y-115.65
X123.8Y-101.6
X123.8Y-104.1
X124.3Y-81.42
X124.3Y-86.5
X125.35Y-115.65
X125.95Y-107.6
X125.95Y-110.1
X126.84Y-83.96
X130.25Y-111.95
X130.35Y-106.05
X132.75Y-111.95
X132.85Y-106.05
X135.65Y-88.95
X135.7Y-86.15
X135.75Y-91.5
X135.75Y-94.0
X138.15Y-88.95
X138.2Y-86.15
X139.7Y-80.75
X142.2Y-80.75
X144.55Y-122.75
X144.95Y-125.6
X145.75Y-78.85
X145.75Y-81.35
X146.95Y-83.75
X147.05Y-122.75
X147.45Y-125.6
X149.35Y-78.75
X149.35Y-81.25
X149.45Y-83.75
X150.95Y-122.9
X150.95Y-125.4
X153.45Y-80.75
X155.95Y-80.75
X156.9Y-92.55
X156.95Y-114.7
X156.95Y-117.2
X159.15Y-99.45
X159.15Y-101.95
X159.15Y-104.75
X159.15Y-107.25
X159.4Y-92.55
X176.3Y-101.15
X176.35Y-126.5
X176.35Y-129.0
X176.55Y-78.7
X176.55Y-81.2
X176.95Y-105.3
X176.95Y-107.8
X177.15Y-110.45
X177.15Y-115.45
X177.35Y-118.55
X177.35Y-123.55
X177.925Y-85.25
X177.925Y-90.25
X177.95Y-93.35
X177.95Y-98.35
X178.8Y-101.15
X179.45Y-127.65
X179.45Y-130.15
X179.5Y-78.6
X179.5Y-81.1
X180.75Y-105.35
X180.75Y-107.85
X182.36Y-98.65
X182.36Y-101.15
T5
X128.26Y-128.1
X129.945Y-121.0
X130.8Y-128.1
X132.485Y-121.0
X135.025Y-121.0
T6
X185.855Y-114.35
X185.855Y-119.35
X186.255Y-89.25
X186.255Y-94.25
T7
X148.45Y-89.75
X148.75Y-115.95
T8
X104.4Y-81.15
X104.45Y-127.65
X187.45Y-128.05
X187.5Y-80.7
T5
G00X109.25Y-115.7
M15
G01X107.75Y-115.7
M16
G05
G00X109.28Y-94.675
M15
G01X107.78Y-94.675
M16
G05
T6
G00X104.5Y-116.3
M15
G01X104.5Y-115.1
M16
G05
G00X104.53Y-95.275
M15
G01X104.53Y-94.075
M16
G05
T0
M30
